
<svg viewBox="0 0 237 43.9"  xmlns="http://www.w3.org/2000/svg">

	<path d="m29.3 0.4h-7.1c-0.4 0-0.8 0.2-1.1 0.4-0.3 0.3-0.4 0.7-0.4 1.1v14.7c-0.3-0.3-0.6-0.7-1-1.1s-0.9-0.8-1.5-1.1-1.3-0.6-2.1-0.8-1.8-0.3-2.9-0.3c-1.7 0-3.3 0.3-4.8 0.8-1.5 0.4-2.8 1.2-3.9 2.3s-2 2.4-2.7 4-1.1 3.5-1.1 5.7c-0.1 0.6-0.1 1.3-0.1 2.3s0 1.7 0.1 2.3c0.1 2.2 0.5 4.1 1.1 5.7 0.7 1.6 1.6 2.9 2.7 4 1.1 1 2.4 1.8 3.9 2.3s3.1 0.8 4.8 0.8c1.2 0 2.3-0.1 3.1-0.3s1.6-0.5 2.2-0.8 1.1-0.7 1.5-1.1 0.9-1.1 1.1-1.6v1.7c0 0.4 0.1 0.8 0.4 1.1s0.7 0.4 1.1 0.4h6.8c0.4 0 0.8-0.1 1.1-0.4s0.4-0.7 0.4-1.1v-39.5c0-0.4-0.2-0.8-0.4-1.1-0.5-0.2-0.8-0.4-1.2-0.4zm-8.6 29.9c-0.1 0.6-0.2 1.9-0.4 2.4s-0.5 1-0.9 1.4-0.9 0.8-1.5 1c-0.6 0.3-1.3 0.4-2.1 0.4-0.9 0-2.2-0.1-2.9-0.4-0.6-0.3-1.1-0.6-1.5-1.1-0.4-0.4-0.7-1-0.9-1.5-0.2-0.6-0.3-2-0.4-2.7-0.1-1-0.1-2.9 0-4 0-0.7 0.2-1.3 0.4-1.9s0.5-1.1 0.9-1.5 0.9-0.8 1.5-1.1 2-0.4 2.9-0.4c0.8 0 1.5 0.1 2.1 0.4s1.1 0.6 1.5 1 0.7 0.9 0.9 1.4 0.4 1.1 0.4 1.6c0.1 0.6 0.1 2 0.1 2.8 0 1 0 1.7-0.1 2.2z"/>
	<path d="m61.7 13.8h-7.1c-0.4 0-0.8 0.1-1.1 0.4s-0.4 0.7-0.4 1.1v14.2c0 1.6-0.3 2.9-1 3.9s-1.8 1.5-3.5 1.5-2.9-0.5-3.6-1.5-1-2.3-1-3.9v-14.2c0-0.4-0.2-0.8-0.4-1.1-0.3-0.3-0.7-0.4-1.1-0.4h-7.1c-0.4 0-0.8 0.1-1.1 0.4s-0.4 0.7-0.4 1.1v15.4c0 4.4 1.1 7.6 3.2 9.7s5 3.1 8.6 3.1c2.3 0 4-0.4 5.2-1.1s2.3-1.7 2.7-2.8v1.8c0 0.4 0.1 0.8 0.4 1.1s0.7 0.4 1.1 0.4h6.5c0.4 0 0.8-0.1 1.1-0.4s0.4-0.7 0.4-1.1v-26.1c0-0.4-0.1-0.8-0.4-1.1-0.2-0.2-0.5-0.4-1-0.4z"/>
	<path d="m110 16.3c-1-1-2.2-1.8-3.5-2.3-1.4-0.5-2.8-0.8-4.4-0.8-1.8 0-3.5 0.4-5 1.1s-2.9 1.8-3.9 3.2c-1-1.5-2.2-2.6-3.8-3.3-1.5-0.7-3.3-1.1-5.2-1.1-1.6 0-2.9 0.3-4.1 0.9s-2.2 1.4-3 2.5v-1.3c0-0.4-0.1-0.8-0.4-1.1s-0.7-0.4-1.1-0.4h-6.8c-0.4 0-0.8 0.2-1.1 0.4-0.3 0.3-0.4 0.7-0.4 1.1v26.2c0 0.4 0.1 0.8 0.4 1.1s0.7 0.4 1.1 0.4h7.1c0.4 0 0.8-0.1 1.1-0.4s0.4-0.7 0.4-1.1v-14.5c0-1.8 0.3-3.1 1-3.8 0.7-0.8 1.7-1.1 3-1.1s2.4 0.4 3 1.1c0.7 0.8 1 2.1 1 4v14.3c0 0.4 0.1 0.8 0.4 1.1s0.7 0.4 1.1 0.4h6.8c0.4 0 0.8-0.1 1.1-0.4s0.4-0.7 0.4-1.1v-14.3c0-1.9 0.3-3.2 1-4s1.7-1.1 3-1.1 2.4 0.4 3 1.1c0.7 0.8 1 2.1 1 4v14.3c0 0.4 0.1 0.8 0.4 1.1s0.7 0.4 1.1 0.4h6.8c0.4 0 0.8-0.1 1.1-0.4s0.4-0.7 0.4-1.1v-15.4c0-2.2-0.3-4.1-0.8-5.7-0.4-1.6-1.2-2.9-2.2-4z"/>
	<path d="m159 16.3c-1-1-2.2-1.8-3.5-2.3-1.4-0.5-2.8-0.8-4.4-0.8-1.8 0-3.5 0.4-5 1.1s-2.9 1.8-3.9 3.2c-1-1.5-2.2-2.6-3.8-3.3-1.5-0.7-3.3-1.1-5.2-1.1-1.6 0-2.9 0.3-4.1 0.9s-2.2 1.4-3 2.5v-1.3c0-0.4-0.2-0.8-0.4-1.1-0.3-0.3-0.7-0.4-1.1-0.4h-6.8c-0.4 0-0.8 0.2-1.1 0.4-0.3 0.3-0.4 0.7-0.4 1.1v26.2c0 0.4 0.1 0.8 0.4 1.1s0.7 0.4 1.1 0.4h7.1c0.4 0 0.8-0.1 1.1-0.4s0.4-0.7 0.4-1.1v-14.5c0-1.8 0.3-3.1 1-3.8 0.7-0.8 1.7-1.1 3-1.1s2.4 0.4 3.1 1.1c0.7 0.8 1 2.1 1 4v14.3c0 0.4 0.1 0.8 0.4 1.1s0.7 0.4 1.1 0.4h6.8c0.4 0 0.8-0.1 1.1-0.4s0.4-0.7 0.4-1.1v-14.3c0-1.9 0.3-3.2 1-4s1.7-1.1 3-1.1 2.4 0.4 3.1 1.1c0.7 0.8 1 2.1 1 4v14.3c0 0.4 0.1 0.8 0.4 1.1s0.7 0.4 1.1 0.4h6.8c0.4 0 0.8-0.1 1.1-0.4s0.4-0.7 0.4-1.1v-15.4c0-2.2-0.3-4.1-0.8-5.7-0.6-1.6-1.4-2.9-2.4-4z"/>
	<path d="m175 42.5c0.3-0.3 0.4-0.7 0.4-1.1v-26.1c0-0.4-0.1-0.8-0.4-1.1s-0.7-0.4-1.1-0.4h-7.1c-0.4 0-0.8 0.2-1.1 0.4-0.3 0.3-0.4 0.7-0.4 1.1v26.1c0 0.4 0.1 0.8 0.4 1.1s0.7 0.4 1.1 0.4h7.1c0.4 0 0.8-0.1 1.1-0.4z"/>
	<path d="m228 42.7c1.8-0.5 3.2-1.1 4.5-2 1.2-0.8 2.2-1.8 2.8-2.9s1-2.3 1-3.6c0-2.2-0.8-4.2-2.3-6-1.5-1.7-4-2.9-7.4-3.4-1.6-0.3-3-0.5-4-0.6s-1.8-0.3-2.4-0.4-0.9-0.3-1.1-0.5-0.3-0.5-0.3-1c0-0.6 0.3-1.8 0.9-2s1.3-0.4 2.2-0.4c1 0 1.7 0.1 2.3 0.3 0.5 0.2 1 0.4 1.3 0.6s0.6 0.4 0.9 0.6c0.5 0.5 0.8 1.1 1.2 1.1h6.5c0.4 0 0.8-0.1 1.1-0.4s0.5-0.7 0.4-1.1c-0.1-0.9-0.5-1.9-1.1-2.8s-1.6-1.8-2.8-2.5-2.6-1.3-4.3-1.8c-1.6-0.5-3.4-0.7-5.4-0.7s-3.8 0.2-5.4 0.7-3 1.1-4.1 1.9-2 1.8-2.7 2.9c-0.6 1.1-1 2.3-1 3.5 0 2.6 0.8 4.6 2.3 6.2 1.5 1.5 3.7 2.6 6.5 3.1 1.6 0.3 3 0.5 4.1 0.7s2 0.3 2.7 0.4 1.1 0.3 1.4 0.6c0.3 0.2 0.4 0.5 0.4 1 0 0.6-0.4 1.8-1.2 2.1s-1.8 0.4-2.9 0.4-2-0.1-2.5-0.3c-0.6-0.2-1-0.4-1.3-0.7-0.3-0.2-0.5-0.5-0.7-0.7s-0.6-1.1-1.2-1.1h-6.6c-0.4 0-0.8 0.2-1.1 0.4-0.3 0.3-0.5 0.7-0.4 1.1 0.1 0.9 0.4 1.8 1 2.7s1.5 1.8 2.7 2.6 2.6 1.4 4.3 1.9 3.7 0.8 5.9 0.8c2 0.1 4-0.2 5.8-0.7z"/>
	<path d="m204 18.2c-1.2-1.5-2.8-2.6-4.7-3.6-1.9-0.9-4.2-1.4-7-1.4-2.4 0-4.6 0.4-6.5 1.1-1.9 0.8-3.5 1.8-4.8 3.2-1.3 1.3-2.3 2.9-2.9 4.8-0.7 1.8-1 3.9-1 6 0 4.7 1.3 8.4 3.9 11.1s6.3 4 11.2 4c2.6 0 4.8-0.4 6.7-1.1s3.4-1.5 4.6-2.5 2-1.9 2.6-2.8c0.3-0.5 0.5-0.9 0.6-1.2 0 0-7.8-1.9-8.3-2s-0.8 0-1 0.1-0.5 0.3-0.9 0.7c-0.5 0.4-1 0.7-1.7 1-0.6 0.2-1.5 0.3-2.6 0.3-0.6 0-1.1-0.1-1.7-0.2s-1.1-0.4-1.6-0.7-0.9-0.8-1.2-1.3c-0.3-0.6-0.5-1.3-0.5-2.1h18.6c0.4 0 0.8-0.1 1.1-0.4s0.4-0.7 0.4-1.1v-1.6c0-1.8-0.3-3.6-0.8-5.4s-1.3-3.5-2.5-4.9zm-17 7.1c0.1-1.2 0.6-3 1.4-3.9s2.3-1.6 3.9-1.6 3.1 0.8 4 1.7c0.8 0.9 1.2 2.7 1.3 3.9h-10.6v-0.1z"/>
	<path d="m231 12c0.3 0.3 0.6 0.5 1 0.7s0.8 0.2 1.2 0.2 0.8-0.1 1.2-0.2c0.4-0.2 0.7-0.4 1-0.7s0.5-0.6 0.7-1 0.2-0.8 0.2-1.2-0.1-0.8-0.2-1.2c-0.2-0.4-0.4-0.7-0.7-1s-0.6-0.5-1-0.7-0.8-0.2-1.2-0.2-0.8 0.1-1.2 0.2c-0.4 0.2-0.7 0.4-1 0.7s-0.5 0.6-0.7 1-0.2 0.8-0.2 1.2 0.1 0.8 0.2 1.2c0.2 0.4 0.4 0.7 0.7 1zm-0.2-3.2c0.1-0.3 0.3-0.6 0.6-0.8 0.2-0.2 0.5-0.4 0.8-0.6 0.3-0.1 0.7-0.2 1-0.2 0.4 0 0.7 0.1 1 0.2s0.6 0.3 0.8 0.6c0.2 0.2 0.4 0.5 0.6 0.8 0.1 0.3 0.2 0.7 0.2 1s-0.1 0.7-0.2 1-0.3 0.6-0.6 0.8c-0.2 0.2-0.5 0.4-0.8 0.6-0.3 0.1-0.7 0.2-1 0.2-0.4 0-0.7-0.1-1-0.2s-0.6-0.3-0.8-0.6c-0.2-0.2-0.4-0.5-0.6-0.8s-0.2-0.7-0.2-1 0.1-0.7 0.2-1z"/>
	<path d="m232 11.4h0.1c0.1 0 0.2-0.1 0.2-0.2v-1h0.8l0.6 1c0 0.1 0.1 0.1 0.1 0.1s0.1 0 0.2 0h0.1c0.1 0 0.1 0 0.1-0.1v-0.1-0.1l-0.6-0.9c0.2-0.1 0.3-0.2 0.4-0.3s0.2-0.3 0.2-0.6c0-0.2 0-0.3-0.1-0.5-0.1-0.1-0.1-0.2-0.2-0.3s-0.2-0.1-0.4-0.2c-0.1 0-0.3-0.1-0.5-0.1h-1.1c-0.1 0-0.2 0.1-0.2 0.2v2.8c0.1 0.2 0.2 0.3 0.3 0.3zm0.3-2.7h0.8 0.3s0.2 0.1 0.2 0.1 0.1 0.1 0.1 0.2v0.2 0.2c0 0.1-0.1 0.1-0.1 0.2 0 0-0.1 0.1-0.2 0.1h-0.3-0.8v-1z"/>
	<path d="m170 9.6c2.8 0 5.1-2.4 5.1-5.3s-2.3-2.3-5.1-2.3-5.1-0.7-5.1 2.3 2.3 5.3 5.1 5.3z"/>


	<path d="m44.4 4.3h-1.8v6.9h-0.7v-6.9h-1.3v-0.4l1.4-0.3v-0.5c0-0.9 0.2-1.6 0.5-2s0.9-0.7 1.6-0.7c0.4 0 0.8 0.1 1.2 0.2l-0.2 0.6c-0.4-0.1-0.7-0.2-1.1-0.2-0.5 0-0.9 0.2-1.1 0.5s-0.3 0.8-0.3 1.5v0.7h1.8v0.6z"/>
	<path d="m46.5 3.7v4.9c0 0.8 0.2 1.3 0.5 1.7 0.3 0.3 0.8 0.5 1.5 0.5 0.9 0 1.6-0.2 2-0.7s0.6-1.2 0.6-2.2v-4.2h0.7v7.5h-0.6l-0.1-1c-0.6 0.8-1.5 1.2-2.7 1.2-1.7 0-2.6-0.9-2.6-2.8v-4.9h0.7zm0.5-2.1c0-0.2 0-0.4 0.1-0.5s0.2-0.1 0.3-0.1c0.3 0 0.4 0.2 0.4 0.6s-0.1 0.6-0.4 0.6c-0.2 0-0.4-0.2-0.4-0.6zm2.7 0c0-0.2 0-0.4 0.1-0.5s0.2-0.1 0.3-0.1c0.3 0 0.4 0.2 0.4 0.6s-0.1 0.6-0.4 0.6-0.4-0.2-0.4-0.6z"/>
	<path d="m57.2 3.6c0.3 0 0.7 0 1 0.1l-0.1 0.7c-0.3-0.1-0.6-0.1-1-0.1-0.6 0-1.2 0.3-1.6 0.8s-0.6 1.2-0.6 2.1v4.2h-0.7v-7.7h0.6l0.1 1.4c0.3-0.6 0.6-0.9 1-1.2s0.8-0.3 1.3-0.3z"/>

</svg>
