<svg width="24" height="24" viewBox="0 0 24 24" fill="none" xmlns="http://www.w3.org/2000/svg">
<path d="M22.2257 0H1.77287C0.79393 0 0 0.770115 0 1.71925V22.2812C0 23.2299 0.79393 24 1.77287 24H22.2257C23.2061 24 24 23.2294 24 22.2812V1.71925C24 0.769633 23.2056 0 22.2257 0ZM7.27454 20.091H3.64965V9.25393H7.27454V20.091ZM5.46234 7.77353H5.43806C4.22215 7.77353 3.43551 6.94117 3.43551 5.90132C3.43551 4.83831 4.24643 4.02911 5.48613 4.02911C6.72631 4.02911 7.48917 4.83831 7.51344 5.90132C7.51344 6.94117 6.72583 7.77353 5.46234 7.77353ZM20.346 20.091H16.7211V14.292C16.7211 12.8357 16.1967 11.8417 14.8851 11.8417C13.8838 11.8417 13.2875 12.512 13.0248 13.1595C12.9292 13.3906 12.9059 13.7139 12.9059 14.0382V20.0906H9.28097C9.28097 20.0906 9.32856 10.2692 9.28097 9.25345H12.9059V10.7874C13.3876 10.0491 14.249 8.99771 16.1734 8.99771C18.5581 8.99771 20.3465 10.5471 20.3465 13.8761V20.091H20.346Z" fill="white"/>
</svg>
