<svg width="24" height="24" viewBox="0 0 24 24" fill="none" xmlns="http://www.w3.org/2000/svg">
<path d="M16.9463 5.69281C16.9463 5.31948 17.0946 4.96143 17.3586 4.69745C17.6226 4.43346 17.9806 4.28516 18.3539 4.28516C18.7273 4.28516 19.0853 4.43346 19.3493 4.69745C19.6133 4.96143 19.7616 5.31948 19.7616 5.69281C19.7616 6.066 19.6133 6.42391 19.3495 6.6878C19.0856 6.95169 18.7277 7.09994 18.3545 7.09994C17.9813 7.09994 17.6234 6.95169 17.3595 6.6878C17.0956 6.42391 16.9473 6.066 16.9473 5.69281H16.9463Z" fill="white"/>
<path d="M12.0988 15.7858C11.095 15.7847 10.1326 15.3856 9.42273 14.6759C8.71284 13.9662 8.3134 13.0039 8.31202 12.0001C8.31313 10.9961 8.71244 10.0336 9.42237 9.32366C10.1323 8.61374 11.0948 8.21443 12.0988 8.21332C14.1858 8.21332 15.8845 9.9121 15.8845 12.0001C15.8845 14.0871 14.1858 15.7858 12.0988 15.7858ZM12.0988 6.08984C10.5316 6.09122 9.02903 6.71432 7.92078 7.82238C6.81252 8.93044 6.18916 10.4329 6.1875 12.0001C6.18916 13.5673 6.81252 15.0698 7.92078 16.1778C9.02903 17.2859 10.5316 17.909 12.0988 17.9104C13.6658 17.9087 15.1681 17.2855 16.2762 16.1775C17.3842 15.0694 18.0074 13.5671 18.0091 12.0001C18.0074 10.4331 17.3842 8.93078 16.2762 7.82275C15.1681 6.71472 13.6658 6.0915 12.0988 6.08984V6.08984Z" fill="white"/>
<path d="M16.7906 2.25809C18.1032 2.25947 19.3616 2.78142 20.2898 3.70945C21.218 4.63747 21.7403 5.89578 21.7419 7.20835V16.7906C21.7405 18.1034 21.2184 19.3619 20.2902 20.2902C19.3619 21.2184 18.1034 21.7405 16.7906 21.7419H7.20939C5.89665 21.7405 4.63807 21.2184 3.70982 20.2902C2.78157 19.3619 2.25947 18.1034 2.25809 16.7906V7.20835C2.25974 5.89578 2.78196 4.63747 3.71018 3.70945C4.6384 2.78142 5.89683 2.25947 7.20939 2.25809H16.7906ZM24 16.7906V7.20835C23.9978 5.29707 23.2375 3.46473 21.8859 2.11335C20.5343 0.76197 18.7019 0.00193321 16.7906 0L7.20939 0C5.29812 0.00193321 3.46566 0.76197 2.11409 2.11335C0.762511 3.46473 0.00220987 5.29707 0 7.20835L0 16.7906C0.00193369 18.7021 0.762113 20.5347 2.11372 21.8863C3.46532 23.2379 5.29794 23.9981 7.20939 24H16.7906C18.7021 23.9981 20.5347 23.2379 21.8863 21.8863C23.2379 20.5347 23.9981 18.7021 24 16.7906V16.7906Z" fill="white"/>
</svg>
