<svg width="11" height="24" viewBox="0 0 11 24" fill="none" xmlns="http://www.w3.org/2000/svg">
<path d="M2.4234 12.095V23.6984C2.4234 23.8643 2.55723 24 2.72195 24H6.97267C7.13739 24 7.27122 23.8643 7.27122 23.6984V11.9061H10.3525C10.4274 11.9061 10.4995 11.8775 10.5546 11.8261C10.6097 11.7747 10.6438 11.7042 10.65 11.6285L10.9465 8.07548C10.9499 8.03377 10.9447 7.9918 10.9313 7.95222C10.9179 7.91263 10.8966 7.8763 10.8686 7.84551C10.8407 7.81471 10.8067 7.79013 10.7689 7.77332C10.7311 7.75651 10.6902 7.74783 10.6489 7.74783H7.27122V5.22783C7.27122 4.63617 7.74375 4.15722 8.32644 4.15722H10.7015C10.7805 4.15722 10.8562 4.12548 10.9122 4.06895C10.9682 4.01243 10.9997 3.93573 11 3.85565V0.302609C11 0.222352 10.9685 0.145382 10.9126 0.088632C10.8566 0.0318819 10.7806 0 10.7015 0L6.68751 0C5.5565 0.000276704 4.47191 0.45587 3.67226 1.26658C2.87262 2.0773 2.4234 3.17675 2.4234 4.32313V7.74783H0.29752C0.218518 7.7481 0.142845 7.78011 0.0870788 7.83683C0.0313124 7.89355 -4.69688e-07 7.97036 0 8.05043L0 11.6035C0 11.7704 0.132803 11.9061 0.29752 11.9061H2.4234V12.095Z" fill="white"/>
</svg>
